<?xml version="1.0" encoding="UTF-8" standalone="no"?>
<!-- Created with Inkscape (http://www.inkscape.org/) -->

<svg
   xmlns:svg="http://www.w3.org/2000/svg"
   xmlns="http://www.w3.org/2000/svg"
   version="1.1"
   width="303.91699"
   height="225.916"
   viewBox="0 0 303.917 225.916"
   id="svg2885"
   xml:space="preserve"
   style="overflow:visible"><defs
   id="defs2906" />
	
		<g
   id="Layer_1">
					
						<path
   d="m 0.463,0.463 302.98999,0 0,224.989 -302.98999,0 0,-224.989 z"
   id="rect2896"
   style="fill:#0e3293;stroke:#0a50a1;stroke-width:0.9271" /> 
					<g
   id="g2898">
						<path
   d="m 48.612,186.995 v -12.316 l 15.737,-15.281 c 37.86,-36.036 55.194,-55.194 55.194,-77.546 0,-15.053 -7.07,-28.966 -29.193,-28.966 -13.457,0 -24.633,6.842 -31.475,12.544 L 52.489,51.29 c 10.035,-8.439 24.86,-15.053 41.966,-15.053 31.703,0 45.16,21.896 45.16,43.106 0,27.369 -19.843,49.493 -51.09,79.599 L 76.894,169.89 v 0.456 h 66.37 v 16.649 H 48.612 z"
   id="path2900"
   style="fill:#ffffff;stroke:#ffffff;stroke-width:6" />
						<path
   d="M 261.861,38.745 V 51.974 L 197.315,186.995 H 176.789 L 240.879,55.851 V 55.394 H 168.35 V 38.745 h 93.511 z"
   id="path2902"
   style="fill:#ffffff;stroke:#ffffff;stroke-width:6" />
					</g>
				</g>
		
	</svg>